<?xml version="1.0"?>
<svg xmlns="http://www.w3.org/2000/svg" xmlns:xlink="http://www.w3.org/1999/xlink" xmlns:svgjs="http://svgjs.com/svgjs" version="1.1" width="512" height="512" x="0" y="0" viewBox="0 0 24 24" style="enable-background:new 0 0 512 512" xml:space="preserve" class=""><g><g xmlns="http://www.w3.org/2000/svg" clip-rule="evenodd" fill="rgb(0,0,0)" fill-rule="evenodd"><path d="m12.5 10.7676c-.2942-.1702-.6357-.2676-1-.2676-1.1046 0-2 .8954-2 2s.8954 2 2 2 2-.8954 2-2v-4.69098l1.2764.63819c.247.1235.5473.02339.6708-.2236s.0234-.54733-.2236-.67082l-2-1c-.155-.0775-.3391-.06922-.4865.02189-.1474.0911-.2371.25203-.2371.42532zm-1 .7324c-.5523 0-1 .4477-1 1s.4477 1 1 1 1-.4477 1-1-.4477-1-1-1z" fill="#ffc107" data-original="#000000" style="" class=""/><path d="m6.07382 3.80852c1.57129-1.00455 3.69065-1.30852 5.92618-1.30852 2.2355 0 4.3549.30397 5.9262 1.30852 1.6155 1.03284 2.5738 2.75383 2.5738 5.37898 0 1.3519-.4732 2.7917-1.1624 4.1667-.6921 1.3808-1.6203 2.7321-2.5729 3.9168-.9532 1.1854-1.94 2.2155-2.7579 2.9535-.408.3682-.7815.6705-1.0933.8842-.1553.1065-.3044.1973-.4413.2634-.1217.0588-.2923.1279-.4722.1279s-.3505-.0691-.4722-.1279c-.1369-.0661-.286-.1569-.4413-.2634-.3118-.2137-.6853-.516-1.09335-.8842-.81781-.738-1.80469-1.7681-2.7578-2.9535-.95268-1.1847-1.88085-2.536-2.57297-3.9168-.68919-1.375-1.16238-2.8148-1.16238-4.1667 0-2.62515.9583-4.34614 2.57382-5.37898zm.53865.84253c-1.27991.81827-2.11247 2.19104-2.11247 4.53645 0 1.1334.40181 2.4127 1.05637 3.7186.65163 1.3 1.53596 2.5913 2.45828 3.7383.92189 1.1465 1.87251 2.1375 2.64845 2.8377.3888.3509.7263.6219.9887.8018.1318.0903.2356.1514.3111.1879.0147.007.027.0126.0371.0169.0101-.0043.0224-.0099.0371-.0169.0755-.0365.1793-.0976.3111-.1879.2624-.1799.5999-.4509.9887-.8018.7759-.7002 1.7266-1.6912 2.6484-2.8377.9224-1.147 1.8067-2.4383 2.4583-3.7383.6546-1.3059 1.0564-2.5852 1.0564-3.7186 0-2.34541-.8326-3.71818-2.1125-4.53645-1.3241-.84655-3.2048-1.15105-5.3875-1.15105-2.18275 0-4.06338.3045-5.38753 1.15105z" fill="#ffc107" data-original="#000000" style="" class=""/></g></g></svg>
