<svg fill="none" height="512" viewBox="0 0 24 24" width="512" xmlns="http://www.w3.org/2000/svg"><path d="m12 2.25c-2.24873 0-4.42777.30384-6.06084 1.34789-1.69943 1.08648-2.68916 2.89453-2.68916 5.58961 0 1.4065.49103 2.8865 1.18889 4.2787.70224 1.401 1.64136 2.7673 2.60163 3.9615.96092 1.195 1.95687 2.235 2.78514 2.9824.41284.3725.79534.6827 1.11944.9048.1612.1105.3217.2088.4739.2823.1294.0626.3423.1528.581.1528s.4516-.0902.581-.1528c.1522-.0735.3127-.1718.4739-.2823.3241-.2221.7066-.5323 1.1194-.9048.8283-.7474 1.8243-1.7874 2.7852-2.9824.9602-1.1942 1.8994-2.5605 2.6016-3.9615.6979-1.3922 1.1889-2.8722 1.1889-4.2787 0-2.69508-.9897-4.50313-2.6892-5.58961-1.633-1.04405-3.8121-1.34789-6.0608-1.34789z" fill="#ffc107"/><path d="m13.3354 6.32918c-.2325-.11625-.5086-.10382-.7297.03283-.2211.13666-.3557.37806-.3557.63799v3.378c-.2346-.0829-.487-.128-.75-.128-1.2426 0-2.25 1.0074-2.25 2.25s1.0074 2.25 2.25 2.25 2.25-1.0074 2.25-2.25v-4.28647l.9146.45729c.3705.18524.821.03507 1.0062-.33541.1853-.37048.0351-.82099-.3354-1.00623z" fill="#fff"/><g clip-rule="evenodd" fill="#000" fill-rule="evenodd"><path d="m12.25 10.378c-.2346-.0829-.487-.128-.75-.128-1.2426 0-2.25 1.0074-2.25 2.25s1.0074 2.25 2.25 2.25 2.25-1.0074 2.25-2.25v-4.28647l.9146.45729c.3705.18524.821.03507 1.0062-.33541.1853-.37048.0351-.82099-.3354-1.00623l-2-1c-.2325-.11625-.5086-.10382-.7297.03283-.2211.13666-.3557.37806-.3557.63799zm-.75 1.372c-.4142 0-.75.3358-.75.75s.3358.75.75.75.75-.3358.75-.75-.3358-.75-.75-.75z"/><path d="m5.93916 3.59789c1.63307-1.04405 3.81211-1.34789 6.06084-1.34789 2.2487 0 4.4278.30384 6.0608 1.34789 1.6995 1.08648 2.6892 2.89453 2.6892 5.58961 0 1.4065-.491 2.8865-1.1889 4.2787-.7022 1.401-1.6414 2.7673-2.6016 3.9615-.9609 1.195-1.9569 2.235-2.7852 2.9824-.4128.3725-.7953.6827-1.1194.9048-.1612.1105-.3217.2088-.4739.2823-.1294.0626-.3423.1528-.581.1528s-.4516-.0902-.581-.1528c-.1522-.0735-.3127-.1718-.4739-.2823-.3241-.2221-.7066-.5323-1.11944-.9048-.82827-.7474-1.82422-1.7874-2.78514-2.9824-.96027-1.1942-1.89939-2.5605-2.60163-3.9615-.69786-1.3922-1.18889-2.8722-1.18889-4.2787 0-2.69508.98973-4.50313 2.68916-5.58961zm.80797 1.2638c-1.196.76463-1.99713 2.05033-1.99713 4.32581 0 1.0788.38397 2.318 1.02986 3.6066.64151 1.2798 1.51489 2.556 2.42962 3.6936.91408 1.1368 1.85562 2.118 2.62112 2.8088.384.3465.7124.6097.9626.7812.0835.0573.1524.1001.2068.131.0544-.0309.1233-.0737.2068-.131.2502-.1715.5786-.4347.9626-.7812.7655-.6908 1.707-1.672 2.6211-2.8088.9148-1.1376 1.7881-2.4138 2.4296-3.6936.6459-1.2886 1.0299-2.5278 1.0299-3.6066 0-2.27548-.8011-3.56118-1.9971-4.32581-1.2624-.80706-3.0834-1.11169-5.2529-1.11169-2.16955 0-3.99051.30463-5.25287 1.11169zm5.36207 15.40161.0048.0015.0015.0006c.0001.0001-.002-.0005-.0063-.0021z"/></g></svg>